<?xml version="1.0" encoding="UTF-8"?>
<svg version="1.1" xmlns="http://www.w3.org/2000/svg" width="275" height="126">
<path d="M0 0 C0.83144531 0.144375 1.66289063 0.28875 2.51953125 0.4375 C3.60621094 0.623125 4.69289062 0.80875 5.8125 1 C6.89144531 1.185625 7.97039063 1.37125 9.08203125 1.5625 C12.00270898 2.07413786 12.00270898 2.07413786 15 2 C18.42857143 9.28571429 18.42857143 9.28571429 18 14 C19.32 14 20.64 14 22 14 C22.33 13.01 22.66 12.02 23 11 C25.25 10.3125 25.25 10.3125 28 10 C30.3125 11.3125 30.3125 11.3125 32 13 C32 13.66 32 14.32 32 15 C33.36125 15.2165625 33.36125 15.2165625 34.75 15.4375 C38.96154975 17.46228353 39.70252151 19.56859039 41.53125 23.7109375 C42 26 42 26 41.28125 28.2265625 C40 30 40 30 37 31 C36.3162955 32.32467746 35.65035814 33.65863633 35 35 C34.01 35.66 33.02 36.32 32 37 C32.33 37.66 32.66 38.32 33 39 C33.84699803 47.75231294 30.86711406 54.26577188 27 62 C26.92805131 64.88370333 26.90708292 67.74239664 26.9375 70.625 C26.94201172 71.42679687 26.94652344 72.22859375 26.95117188 73.0546875 C26.96296832 75.03649006 26.98090395 77.01825433 27 79 C27.76957031 79.07089844 28.53914063 79.14179687 29.33203125 79.21484375 C32 80 32 80 33.51171875 82.00390625 C39.95054623 96.01530824 39.95054623 96.01530824 37.9375 102.25 C36.3400569 105.88507051 34.263704 107.7154072 31 110 C30.65437012 110.68586182 30.30874023 111.37172363 29.95263672 112.07836914 C27.16200526 114.82468825 24.88897468 114.4888046 21.0798645 114.53013611 C20.14858734 114.51890213 19.21731018 114.50766815 18.2578125 114.49609375 C16.81702835 114.4982766 16.81702835 114.4982766 15.34713745 114.50050354 C13.31456471 114.49884313 11.28197959 114.48726599 9.24951172 114.46655273 C6.14365944 114.4376735 3.03952167 114.44592598 -0.06640625 114.45898438 C-2.04167494 114.45274462 -4.01693825 114.44435183 -5.9921875 114.43359375 C-7.38303055 114.43799721 -7.38303055 114.43799721 -8.80197144 114.44248962 C-13.7435364 114.37051454 -16.92608611 114.08864801 -21 111 C-21.73605469 110.71511719 -22.47210938 110.43023437 -23.23046875 110.13671875 C-25 109 -25 109 -25.86328125 106.64453125 C-26.73405131 101.15489391 -27.46570216 96.41182335 -26 91 C-24.5625 89.4375 -24.5625 89.4375 -23 88 C-22.30899447 86.00827818 -21.64097297 84.00838196 -21 82 C-20.01 81.01 -20.01 81.01 -19 80 C-18.01 80 -17.02 80 -16 80 C-15.99490153 64.84938834 -15.99490153 64.84938834 -23 52 C-24.3337315 46.62205038 -24.23696632 42.13186391 -22 37 C-23.32 36.67 -24.64 36.34 -26 36 C-26.33 34.68 -26.66 33.36 -27 32 C-27.66 32 -28.32 32 -29 32 C-30.6875 30.375 -30.6875 30.375 -32 28 C-31.73519701 21.77712974 -29.13902801 17.87724451 -24.6875 13.75 C-21.53942365 11.17309362 -19.17561243 10 -15 10 C-12.25045672 10.96605575 -11.30992243 11.38015514 -10 14 C-7.90649311 10.5980513 -7.82057837 7.94727588 -8 4 C-6.35 4 -4.7 4 -3 4 C-3 3.34 -3 2.68 -3 2 C-2.01 2 -1.02 2 0 2 C0 1.34 0 0.68 0 0 Z M-5 6 C-5 7.65 -5 9.3 -5 11 C-4.34 10.34 -3.68 9.68 -3 9 C-3 8.01 -3 7.02 -3 6 C-3.66 6 -4.32 6 -5 6 Z M12 6 C13 8 13 8 13 8 Z M0 9 C1.98 9.99 1.98 9.99 4 11 C4 12.98 4 14.96 4 17 C4.66 17 5.32 17 6 17 C6.28875 16.05125 6.5775 15.1025 6.875 14.125 C8 11 8 11 10 9 C6.7 9 3.4 9 0 9 Z M-3 11 C-3.68493373 13.85778033 -3.68493373 13.85778033 -4 17 C-3.01 18.485 -3.01 18.485 -2 20 C-1.19032562 17.08517222 -0.78154007 15.53886783 -1.9375 12.6875 C-2.288125 12.130625 -2.63875 11.57375 -3 11 Z M-19 13 C-20.77190909 14.35444301 -20.77190909 14.35444301 -22 16 C-19.525 16.495 -19.525 16.495 -17 17 C-17 19.64 -17 22.28 -17 25 C-14.94074319 21.91111478 -14.7609626 21.29064073 -14.875 17.8125 C-14.936875 15.9253125 -14.936875 15.9253125 -15 14 C-16.83700789 13.22757731 -16.83700789 13.22757731 -19 13 Z M-7 13 C-6.67 13.99 -6.34 14.98 -6 16 C-5.67 15.01 -5.34 14.02 -5 13 C-5.66 13 -6.32 13 -7 13 Z M25 13 C24.34 14.32 23.68 15.64 23 17 C24.98 17.99 24.98 17.99 27 19 C27.33 18.01 27.66 17.02 28 16 C27.01 15.01 26.02 14.02 25 13 Z M12 14 C11.3185177 15.89179203 11.3185177 15.89179203 11 18 C11.66 18.66 12.32 19.32 13 20 C13.33 18.35 13.66 16.7 14 15 C13.34 14.67 12.68 14.34 12 14 Z M15 14 C16 16 16 16 16 16 Z M-24 17 C-24.103125 17.639375 -24.20625 18.27875 -24.3125 18.9375 C-24.539375 19.618125 -24.76625 20.29875 -25 21 C-25.99 21.33 -26.98 21.66 -28 22 C-28.33 22.99 -28.66 23.98 -29 25 C-27.6078125 24.9690625 -27.6078125 24.9690625 -26.1875 24.9375 C-23 25 -23 25 -20 26 C-20.50603992 23.83125748 -20.99983813 22.00032373 -22 20 C-21.34 19.67 -20.68 19.34 -20 19 C-21.32 18.34 -22.64 17.68 -24 17 Z M15 17 C15 18.65 15 20.3 15 22 C15.66 20.68 16.32 19.36 17 18 C16.34 17.67 15.68 17.34 15 17 Z M-7 18 C-6.67 19.32 -6.34 20.64 -6 22 C-6 20.68 -6 19.36 -6 18 C-6.33 18 -6.66 18 -7 18 Z M31 18 C30.67 18.66 30.34 19.32 30 20 C30.99 20.33 31.98 20.66 33 21 C33.99 20.01 34.98 19.02 36 18 C34.35 18 32.7 18 31 18 Z M25 22 C26 24 26 24 26 24 Z M-6 23 C-6 23.66 -6 24.32 -6 25 C-5.34 25 -4.68 25 -4 25 C-4 24.34 -4 23.68 -4 23 C-4.66 23 -5.32 23 -6 23 Z M3 23 C4.485 23.99 4.485 23.99 6 25 C6.99 24.34 7.98 23.68 9 23 C7.02 23 5.04 23 3 23 Z M27 23 C28 25 28 25 28 25 Z M30 23 C34 24 34 24 34 24 Z M29 24 C29.33 25.32 29.66 26.64 30 28 C30.33 27.01 30.66 26.02 31 25 C30.34 24.67 29.68 24.34 29 24 Z M-30 25 C-29 27 -29 27 -29 27 Z M11 25 C10.67 25.33 10.34 25.66 10 26 C7.32941149 26.14115161 4.67567762 26.04247107 2 26 C2.33 26.99 2.66 27.98 3 29 C7.7897321 29.23428313 7.7897321 29.23428313 12 27 C11.67 26.34 11.34 25.68 11 25 Z M-21 28 C-20 32 -20 32 -20 32 Z M-4 28 C-3.67 28.99 -3.34 29.98 -3 31 C-2.67 30.01 -2.34 29.02 -2 28 C-2.66 28 -3.32 28 -4 28 Z M12 28 C12.33 28.66 12.66 29.32 13 30 C13.33 29.34 13.66 28.68 14 28 C13.34 28 12.68 28 12 28 Z M-9 29 C-8.34 29.66 -7.68 30.32 -7 31 C-7 30.34 -7 29.68 -7 29 C-7.66 29 -8.32 29 -9 29 Z M10 30 C9.67 30.99 9.34 31.98 9 33 C9.66 33 10.32 33 11 33 C10.67 32.01 10.34 31.02 10 30 Z M-1 31 C-0.34 31.66 0.32 32.32 1 33 C1 32.34 1 31.68 1 31 C0.34 31 -0.32 31 -1 31 Z M3 31 C4 33 4 33 4 33 Z M6 31 C6 31.66 6 32.32 6 33 C6.66 32.67 7.32 32.34 8 32 C7.34 31.67 6.68 31.34 6 31 Z M-23 32 C-23 35 -23 35 -23 35 Z M-9 32 C-8 34 -8 34 -8 34 Z M18 33 C18 34.32 18 35.64 18 37 C18.66 36.67 19.32 36.34 20 36 C19.34 35.01 18.68 34.02 18 33 Z M-1 35 C0 37 0 37 0 37 Z M2 36 C2.33 36.66 2.66 37.32 3 38 C3.33 37.34 3.66 36.68 4 36 C3.34 36 2.68 36 2 36 Z M-14 37 C-13 39 -13 39 -13 39 Z M5 38 C4.67 38.66 4.34 39.32 4 40 C4.99 39.67 5.98 39.34 7 39 C6.34 38.67 5.68 38.34 5 38 Z M9 38 C10 40 10 40 10 40 Z M-2 39 C-1 42 -1 42 -1 42 Z M23 42 C24 44 24 44 24 44 Z M-1 44 C0 46 0 46 0 46 Z M3 44 C3.33 44.66 3.66 45.32 4 46 C4.33 45.34 4.66 44.68 5 44 C4.34 44 3.68 44 3 44 Z M-21 45 C-20 49 -20 49 -20 49 Z M26 46 C26.33 46.99 26.66 47.98 27 49 C27.33 48.01 27.66 47.02 28 46 C27.34 46 26.68 46 26 46 Z M-5 47 C-4 49 -4 49 -4 49 Z M-1 48 C-1.33 48.66 -1.66 49.32 -2 50 C-1.34 50 -0.68 50 0 50 C-0.33 49.34 -0.66 48.68 -1 48 Z M22 48 C23 50 23 50 23 50 Z M14 53 C15 56 15 56 15 56 Z M-10 55 C-11.97437653 56.89211084 -12.94831986 58.34046297 -13.1640625 61.09375 C-13.13773321 62.67350719 -13.09572991 64.2530712 -13.0390625 65.83203125 C-12.99387281 68.34005906 -13.48451859 70.55146331 -14 73 C-14.03824623 75.33301986 -14.04574284 77.66711508 -14 80 C-13.34 80 -12.68 80 -12 80 C-11.67 80.66 -11.34 81.32 -11 82 C-9.33971222 77.57124509 -9.33971222 77.57124509 -9.5 73 C-10 71 -10 71 -9.0625 67.75 C-7.86983422 63.54059137 -7.84758644 60.34378647 -8 56 C-8.66 55.67 -9.32 55.34 -10 55 Z M24 57 C25 59 25 59 25 59 Z M-4 58 C-4 65.92 -4 73.84 -4 82 C-3.34 82 -2.68 82 -2 82 C-1.87625 81.360625 -1.7525 80.72125 -1.625 80.0625 C-1.41875 79.381875 -1.2125 78.70125 -1 78 C-0.34 77.67 0.32 77.34 1 77 C0.34 71.06 -0.32 65.12 -1 59 C-1.99 58.67 -2.98 58.34 -4 58 Z M11 58 C11 62.29 11 66.58 11 71 C13.11245742 70.22058956 13.11245742 70.22058956 13.625 68.4375 C14.16368951 64.93601819 14.05903219 61.54193167 14 58 C13.01 58 12.02 58 11 58 Z M18 58 C16.49528332 68.07117305 17.21662505 74.96289715 22 84 C23.32 84 24.64 84 26 84 C26.66 83.34 27.32 82.68 28 82 C27.38125 81.9175 26.7625 81.835 26.125 81.75 C24 81 24 81 22.75 78.9375 C22.5025 78.298125 22.255 77.65875 22 77 C22.66 77 23.32 77 24 77 C24.33 77.66 24.66 78.32 25 79 C24.62095792 75.70924004 24.62095792 75.70924004 23 73 C22.79582681 70.25500485 22.68071101 67.51215668 22.57421875 64.76171875 C21.87399224 61.39396269 20.59268692 60.17868502 18 58 Z M-7 59 C-6 61 -6 61 -6 61 Z M1 59 C1 62.63 1 66.26 1 70 C1.33 70 1.66 70 2 70 C2 66.37 2 62.74 2 59 C1.67 59 1.34 59 1 59 Z M4 59 C4 62.63 4 66.26 4 70 C6.26609984 65.46780033 5.92735976 63.82227075 5 59 C4.67 59 4.34 59 4 59 Z M8 60 C8 62.31 8 64.62 8 67 C8.66 66.67 9.32 66.34 10 66 C9.67 64.02 9.34 62.04 9 60 C8.67 60 8.34 60 8 60 Z M-15 61 C-15 62.65 -15 64.3 -15 66 C-14.67 66 -14.34 66 -14 66 C-14 64.35 -14 62.7 -14 61 C-14.33 61 -14.66 61 -15 61 Z M-8 64 C-8 66.31 -8 68.62 -8 71 C-7.67 71 -7.34 71 -7 71 C-7 68.69 -7 66.38 -7 64 C-7.33 64 -7.66 64 -8 64 Z M23 69 C24 72 24 72 24 72 Z M-9 72 C-8 75 -8 75 -8 75 Z M-6 73 C-6.33 75.31 -6.66 77.62 -7 80 C-6.34 79.67 -5.68 79.34 -5 79 C-5 77.02 -5 75.04 -5 73 C-5.33 73 -5.66 73 -6 73 Z M16 75 C16 76.65 16 78.3 16 80 C16.33 80 16.66 80 17 80 C17 78.35 17 76.7 17 75 C16.67 75 16.34 75 16 75 Z M6 78 C5.67 79.98 5.34 81.96 5 84 C5.99 84.495 5.99 84.495 7 85 C7 82.69 7 80.38 7 78 C6.67 78 6.34 78 6 78 Z M0 82 C0.33 82.99 0.66 83.98 1 85 C1 84.01 1 83.02 1 82 C0.67 82 0.34 82 0 82 Z M-13 82 C-13.99 82.66 -14.98 83.32 -16 84 C-15.67 84.66 -15.34 85.32 -15 86 C-14.01 85.34 -13.02 84.68 -12 84 C-12.33 83.34 -12.66 82.68 -13 82 Z M16 89 C16.99 90.485 16.99 90.485 18 92 C18 91.01 18 90.02 18 89 C17.34 89 16.68 89 16 89 Z M-10 90 C-10.33 91.98 -10.66 93.96 -11 96 C-10.01 96 -9.02 96 -8 96 C-7.34 94.02 -6.68 92.04 -6 90 C-7.32 90 -8.64 90 -10 90 Z M24 90 C24 90.66 24 91.32 24 92 C24.66 91.67 25.32 91.34 26 91 C25.34 90.67 24.68 90.34 24 90 Z M-19 91 C-18.25640327 96.55053286 -18.25640327 96.55053286 -17 102 C-17 101.34 -17 100.68 -17 100 C-15.1746875 100.7115625 -15.1746875 100.7115625 -13.3125 101.4375 C-10.22731209 102.59924038 -7.26878802 103.48925187 -4 104 C-4.680625 103.38125 -4.680625 103.38125 -5.375 102.75 C-7.05950374 100.93591905 -7.99265971 99.24714373 -9 97 C-10.32 97.33 -11.64 97.66 -13 98 C-13.33 97.01 -13.66 96.02 -14 95 C-14.99 96.485 -14.99 96.485 -16 98 C-15.67 95.69 -15.34 93.38 -15 91 C-16.32 91 -17.64 91 -19 91 Z M31 92 C32 94 32 94 32 94 Z M24 94 C22.68 95.32 21.36 96.64 20 98 C20.99 99.32 21.98 100.64 23 102 C23.12375 101.360625 23.2475 100.72125 23.375 100.0625 C23.58125 99.381875 23.7875 98.70125 24 98 C24.66 97.67 25.32 97.34 26 97 C25.34 96.01 24.68 95.02 24 94 Z M30 94 C31 97 31 97 31 97 Z M-23 95 C-22.42547254 98.93075644 -22.42547254 98.93075644 -20 102 C-19.74969023 99.58380177 -19.74969023 99.58380177 -20 97 C-20.99 96.34 -21.98 95.68 -23 95 Z M-4 96 C-3 98 -3 98 -3 98 Z M16 96 C17 98 17 98 17 98 Z M26 98 C26.33 98.99 26.66 99.98 27 101 C27.99 101 28.98 101 30 101 C30 100.01 30 99.02 30 98 C28.68 98 27.36 98 26 98 Z M18 99 C16.515 102.465 16.515 102.465 15 106 C16.32 105.67 17.64 105.34 19 105 C19 103.02 19 101.04 19 99 C18.67 99 18.34 99 18 99 Z M-24 102 C-23 105 -23 105 -23 105 Z M-15 104 C-15.33 104.66 -15.66 105.32 -16 106 C-15.01 105.67 -14.02 105.34 -13 105 C-13.66 104.67 -14.32 104.34 -15 104 Z " fill="#FFFFFF" transform="translate(33,0)"/>
<path d="M0 0 C2.31 0.33 4.62 0.66 7 1 C7.33 2.32 7.66 3.64 8 5 C6.68 5 5.36 5 4 5 C4 4.34 4 3.68 4 3 C3.34 3 2.68 3 2 3 C2 3.99 2 4.98 2 6 C4.87450983 6.25048636 4.87450983 6.25048636 8 6 C8.45632812 5.49339844 8.91265625 4.98679687 9.3828125 4.46484375 C11 3 11 3 13.34765625 2.9609375 C14.24355469 3.09757812 15.13945313 3.23421875 16.0625 3.375 C20.87345325 3.97557052 25.11734897 3.84037872 29.90625 3.15625 C32 3 32 3 35 4 C37.00124361 3.67421616 39.00102872 3.33944795 41 3 C43.69221767 2.86686836 46.29970551 2.90846459 49 3 C50 4 50 4 50.09765625 6.50390625 C50.08605469 7.51324219 50.07445312 8.52257812 50.0625 9.5625 C50.05347656 10.57441406 50.04445312 11.58632812 50.03515625 12.62890625 C50.02355469 13.41136719 50.01195312 14.19382812 50 15 C49.01 15 48.02 15 47 15 C46.505 11.04 46.505 11.04 46 7 C45.67 9.64 45.34 12.28 45 15 C44.01 15 43.02 15 42 15 C41.505 11.04 41.505 11.04 41 7 C40.34 7 39.68 7 39 7 C39 9.64 39 12.28 39 15 C38.195625 14.814375 37.39125 14.62875 36.5625 14.4375 C35.716875 14.293125 34.87125 14.14875 34 14 C33.67 14.33 33.34 14.66 33 15 C30.625 15.3125 30.625 15.3125 28 15 C26.1875 13 26.1875 13 25 11 C24.67 12.32 24.34 13.64 24 15 C21.525 14.505 21.525 14.505 19 14 C18.67 12.68 18.34 11.36 18 10 C17.608125 10.825 17.21625 11.65 16.8125 12.5 C15.9153125 13.7375 15.9153125 13.7375 15 15 C12.4375 15.3125 12.4375 15.3125 10 15 C8.70812071 15 7.41597189 15.02190105 6.125 15.0703125 C5.42375 15.08835937 4.7225 15.10640625 4 15.125 C3.29875 15.14820312 2.5975 15.17140625 1.875 15.1953125 C0 15 0 15 -2 13 C-2.265625 10.72265625 -2.265625 10.72265625 -2.25 8.0625 C-2.25515625 7.18722656 -2.2603125 6.31195313 -2.265625 5.41015625 C-2 3 -2 3 0 0 Z M12 6 C12 7.98 12 9.96 12 12 C12.66 11.67 13.32 11.34 14 11 C13.67 9.35 13.34 7.7 13 6 C12.67 6 12.34 6 12 6 Z M30 6 C31 8 31 8 31 8 Z M2 9 C2 9.99 2 10.98 2 12 C2.66 12 3.32 12 4 12 C3.67 11.01 3.34 10.02 3 9 C2.67 9 2.34 9 2 9 Z M30 10 C30.33 10.66 30.66 11.32 31 12 C31.33 11.34 31.66 10.68 32 10 C31.34 10 30.68 10 30 10 Z " fill="#FFFFFF" transform="translate(90,89)"/>
<path d="M0 0 C1.32 0 2.64 0 4 0 C4 0.99 4 1.98 4 3 C8.62 3 13.24 3 18 3 C18.33 4.32 18.66 5.64 19 7 C19.33 5.68 19.66 4.36 20 3 C21.65 3 23.3 3 25 3 C24.43544653 5.60955832 23.8494963 8.21095449 23.25 10.8125 C23.01410156 11.91948242 23.01410156 11.91948242 22.7734375 13.04882812 C22.00712909 16.30563888 21.36609944 18.6112024 19.046875 21.07421875 C17 22 17 22 14 21 C14 20.01 14 19.02 14 18 C14.99 18 15.98 18 17 18 C16.57781184 16.3501725 16.13675575 14.70516335 15.6875 13.0625 C15.44386719 12.14597656 15.20023438 11.22945312 14.94921875 10.28515625 C14.63597656 9.53105469 14.32273438 8.77695312 14 8 C13.01 7.67 12.02 7.34 11 7 C11 10.3 11 13.6 11 17 C3.28515625 17.09765625 3.28515625 17.09765625 1 17 C0 16 0 16 -0.09765625 13.71484375 C-0.08605469 12.79832031 -0.07445312 11.88179687 -0.0625 10.9375 C-0.05347656 10.01839844 -0.04445312 9.09929688 -0.03515625 8.15234375 C-0.02355469 7.44207031 -0.01195312 6.73179688 0 6 C-0.66 6 -1.32 6 -2 6 C-2 8.37582223 -1.95479344 10.75344274 -1.8125 13.125 C-1.874375 14.07375 -1.93625 15.0225 -2 16 C-5 18 -5 18 -8.1875 17.625 C-9.115625 17.41875 -10.04375 17.2125 -11 17 C-12.00973596 12.32997119 -12.10506742 8.66584021 -11 4 C-10 3 -10 3 -7.1875 2.9375 C-6.135625 2.958125 -5.08375 2.97875 -4 3 C-2.68 3 -1.36 3 0 3 C0 2.01 0 1.02 0 0 Z M-8 6 C-8 6.66 -8 7.32 -8 8 C-7.34 8 -6.68 8 -6 8 C-6 7.34 -6 6.68 -6 6 C-6.66 6 -7.32 6 -8 6 Z M4 7 C4 9.31 4 11.62 4 14 C4.66 14 5.32 14 6 14 C6 11.69 6 9.38 6 7 C5.34 7 4.68 7 4 7 Z M-8 12 C-8 12.66 -8 13.32 -8 14 C-7.34 14 -6.68 14 -6 14 C-6 13.34 -6 12.68 -6 12 C-6.66 12 -7.32 12 -8 12 Z " fill="#FFFFFF" transform="translate(141,24)"/>
<path d="M0 0 C2.97 0 5.94 0 9 0 C9.66 1.32 10.32 2.64 11 4 C11.33 3.01 11.66 2.02 12 1 C15.21451269 -0.60725635 18.43612536 -0.05748185 22 0 C22.08071788 2.79224073 22.14035408 5.58216566 22.1875 8.375 C22.21263672 9.1690625 22.23777344 9.963125 22.26367188 10.78125 C22.29004405 12.85586148 22.15486462 14.93100865 22 17 C18.77626323 19.14915785 17.73296326 19.38286803 14 19 C11.8614515 16.8614515 11.57344937 15.86724686 11 13 C9.35 13.33 7.7 13.66 6 14 C6 10.7 6 7.4 6 4 C5.34 4 4.68 4 4 4 C4 7.3 4 10.6 4 14 C2.68 14 1.36 14 0 14 C0 9.38 0 4.76 0 0 Z M16 4 C16 6.31 16 8.62 16 11 C16.66 10.67 17.32 10.34 18 10 C18 8.02 18 6.04 18 4 C17.34 4 16.68 4 16 4 Z " fill="#FFFFFF" transform="translate(251,27)"/>
<path d="M0 0 C1.98 0 3.96 0 6 0 C6.66 1.98 7.32 3.96 8 6 C8.66 4.02 9.32 2.04 10 0 C11.98 0 13.96 0 16 0 C16 5.94 16 11.88 16 18 C14.68 18 13.36 18 12 18 C11.67 17.34 11.34 16.68 11 16 C10.67 16.66 10.34 17.32 10 18 C8.68 18 7.36 18 6 18 C5.67 16.68 5.34 15.36 5 14 C4.67 15.32 4.34 16.64 4 18 C2.68 18 1.36 18 0 18 C0 12.06 0 6.12 0 0 Z " fill="#FFFFFF" transform="translate(88,23)"/>
<path d="M0 0 C2.75 -0.3125 2.75 -0.3125 5 0 C4.835 0.5775 4.67 1.155 4.5 1.75 C3.85537969 4.26664369 3.85537969 4.26664369 4 8 C3.8513773 9.75162469 3.68402733 11.50174037 3.5 13.25 C3.36078125 14.58804688 3.36078125 14.58804688 3.21875 15.953125 C3.1465625 16.62859375 3.074375 17.3040625 3 18 C1.35 18 -0.3 18 -2 18 C-2.33 17.01 -2.66 16.02 -3 15 C-3.8353125 16.0209375 -3.8353125 16.0209375 -4.6875 17.0625 C-7 19 -7 19 -9.625 18.875 C-12 18 -12 18 -14 16 C-14.30078125 13.94140625 -14.30078125 13.94140625 -14.3125 11.5625 C-14.32925781 10.78003906 -14.34601563 9.99757813 -14.36328125 9.19140625 C-14 7 -14 7 -12.6953125 5.17578125 C-12.13585937 4.78777344 -11.57640625 4.39976563 -11 4 C-9.865625 4.20625 -8.73125 4.4125 -7.5625 4.625 C-6.386875 4.74875 -5.21125 4.8725 -4 5 C-1.84550034 2.59855425 -1.84550034 2.59855425 0 0 Z M-9 7 C-10.41577477 8.18424326 -10.41577477 8.18424326 -10.0625 11.5625 C-10.041875 12.696875 -10.02125 13.83125 -10 15 C-9.34 15 -8.68 15 -8 15 C-7.32198966 12.09926819 -7.32198966 12.09926819 -7 9 C-7.66 8.34 -8.32 7.68 -9 7 Z " fill="#FFFFFF" transform="translate(186,23)"/>
<path d="M0 0 C0.99 0.66 1.98 1.32 3 2 C3.66 1.34 4.32 0.68 5 0 C9.55555556 0.55555556 9.55555556 0.55555556 11 2 C11.27314815 7.73611111 11.27314815 7.73611111 11 10 C9 12 9 12 6.5 12.125 C5.675 12.08375 4.85 12.0425 4 12 C3.34 12 2.68 12 2 12 C-2.66666667 12 -7.33333333 12 -12 12 C-12 8.37 -12 4.74 -12 1 C-7.6242643 -0.09393392 -4.488342 -0.21373057 0 0 Z M6 3 C6 3.66 6 4.32 6 5 C6.66 5 7.32 5 8 5 C8 4.34 8 3.68 8 3 C7.34 3 6.68 3 6 3 Z M6 7 C6 7.66 6 8.32 6 9 C6.66 9 7.32 9 8 9 C8 8.34 8 7.68 8 7 C7.34 7 6.68 7 6 7 Z " fill="#FFFFFF" transform="translate(153,92)"/>
<path d="M0 0 C1.32 0 2.64 0 4 0 C4 1.32 4 2.64 4 4 C4.99 3.67 5.98 3.34 7 3 C10 4 10 4 11 6 C11.16796875 8.05859375 11.16796875 8.05859375 11.1875 10.4375 C11.20167969 11.21996094 11.21585938 12.00242187 11.23046875 12.80859375 C11 15 11 15 9 18 C5.96133201 18.41137202 3.07840297 18.13193156 0 18 C-0.33 14.7 -0.66 11.4 -1 8 C-1.99 8 -2.98 8 -4 8 C-4 11.3 -4 14.6 -4 18 C-5.32 18 -6.64 18 -8 18 C-8 13.38 -8 8.76 -8 4 C-4.535 3.505 -4.535 3.505 -1 3 C-0.67 2.01 -0.34 1.02 0 0 Z M5 7 C3.64381501 8.12534105 3.64381501 8.12534105 3.9375 11.0625 C3.958125 12.031875 3.97875 13.00125 4 14 C4.99 14.495 4.99 14.495 6 15 C6.33 12.69 6.66 10.38 7 8 C6.34 7.67 5.68 7.34 5 7 Z " fill="#FFFFFF" transform="translate(151,50)"/>
<path d="M0 0 C0.33 1.65 0.66 3.3 1 5 C1.33 3.68 1.66 2.36 2 1 C3.65 0.67 5.3 0.34 7 0 C6.67 5.94 6.34 11.88 6 18 C4.35 18.33 2.7 18.66 1 19 C1 15.37 1 11.74 1 8 C0.01 8 -0.98 8 -2 8 C-2 11.63 -2 15.26 -2 19 C-3.32 19 -4.64 19 -6 19 C-6 15.37 -6 11.74 -6 8 C-6.66 8 -7.32 8 -8 8 C-8 7.01 -8 6.02 -8 5 C-7.34 5 -6.68 5 -6 5 C-5.87625 4.360625 -5.7525 3.72125 -5.625 3.0625 C-5.41875 2.381875 -5.2125 1.70125 -5 1 C-3 0 -3 0 0 0 Z " fill="#FFFFFF" transform="translate(213,49)"/>
<path d="M0 0 C0.61875 -0.20625 1.2375 -0.4125 1.875 -0.625 C4.99417271 -1.17544224 6.48546564 0.25379558 9 2 C8.814375 2.556875 8.62875 3.11375 8.4375 3.6875 C7.83461649 6.04649928 7.83461649 6.04649928 8.5625 8.5625 C9 11 9 11 7 14 C3.4375 14.25 3.4375 14.25 0 14 C-1.58272601 12.41727399 -1.34735747 10.61965997 -1.5625 8.4375 C-1.64628906 7.61121094 -1.73007813 6.78492188 -1.81640625 5.93359375 C-1.87699219 5.29550781 -1.93757812 4.65742187 -2 4 C-2.99 4 -3.98 4 -5 4 C-5 7.3 -5 10.6 -5 14 C-6.32 14 -7.64 14 -9 14 C-9 9.38 -9 4.76 -9 0 C-3 -1 -3 -1 0 0 Z M3 3 C3 3.66 3 4.32 3 5 C3.66 4.67 4.32 4.34 5 4 C4.34 3.67 3.68 3.34 3 3 Z M2 8 C2.33 8.99 2.66 9.98 3 11 C3.66 10.34 4.32 9.68 5 9 C4.01 8.67 3.02 8.34 2 8 Z " fill="#FFFFFF" transform="translate(247,54)"/>
<path d="M0 0 C1.65 0 3.3 0 5 0 C5 2.31 5 4.62 5 7 C5.99 7 6.98 7 8 7 C8 4.69 8 2.38 8 0 C9.32 0 10.64 0 12 0 C12 5.94 12 11.88 12 18 C10.68 18 9.36 18 8 18 C7.67 15.69 7.34 13.38 7 11 C6.34 11 5.68 11 5 11 C5 13.31 5 15.62 5 18 C3.35 18 1.7 18 0 18 C0 12.06 0 6.12 0 0 Z " fill="#FFFFFF" transform="translate(197,23)"/>
<path d="M0 0 C1.32 0 2.64 0 4 0 C4.06058594 0.92683594 4.12117187 1.85367188 4.18359375 2.80859375 C4.26738281 4.00613281 4.35117188 5.20367187 4.4375 6.4375 C4.51871094 7.63246094 4.59992188 8.82742187 4.68359375 10.05859375 C4.67656114 12.88570244 4.67656114 12.88570244 6 14 C6.33 9.38 6.66 4.76 7 0 C8.65 0 10.3 0 12 0 C12.0809723 2.43816585 12.14046972 4.87364384 12.1875 7.3125 C12.22520508 8.34793945 12.22520508 8.34793945 12.26367188 9.40429688 C12.33734651 14.48784666 12.33734651 14.48784666 10.7109375 16.95703125 C7.82029721 18.7191339 5.27354182 18.35711365 2 18 C-0.45391569 14.31912647 -0.22802759 11.55644412 -0.125 7.3125 C-0.11597656 6.61060547 -0.10695312 5.90871094 -0.09765625 5.18554688 C-0.07413704 3.45688475 -0.03826713 1.72839855 0 0 Z " fill="#FFFFFF" transform="translate(130,50)"/>
<path d="M0 0 C2.64 0 5.28 0 8 0 C8 4.95 8 9.9 8 15 C-1.27734375 15.09765625 -1.27734375 15.09765625 -4 15 C-5 14 -5 14 -5.09765625 11.71484375 C-5.08605469 10.79832031 -5.07445312 9.88179687 -5.0625 8.9375 C-5.05347656 8.01839844 -5.04445312 7.09929687 -5.03515625 6.15234375 C-5.02355469 5.44207031 -5.01195312 4.73179688 -5 4 C-4.0409375 3.8453125 -4.0409375 3.8453125 -3.0625 3.6875 C-2.381875 3.460625 -1.70125 3.23375 -1 3 C-0.67 2.01 -0.34 1.02 0 0 Z M-2 7 C-2 8.65 -2 10.3 -2 12 C-1.34 12 -0.68 12 0 12 C0 10.35 0 8.7 0 7 C-0.66 7 -1.32 7 -2 7 Z " fill="#FFFFFF" transform="translate(225,89)"/>
<path d="M0 0 C1.98 0 3.96 0 6 0 C6.67321284 2.24805002 7.33834123 4.49852224 8 6.75 C8.556875 8.62945312 8.556875 8.62945312 9.125 10.546875 C10 14 10 14 10 18 C8.35 17.67 6.7 17.34 5 17 C5 16.01 5 15.02 5 14 C3.68 14 2.36 14 1 14 C0.67 15.32 0.34 16.64 0 18 C-1.32 18 -2.64 18 -4 18 C-3.31195504 11.80759538 -1.71951285 5.98044406 0 0 Z M2 8 C2 8.66 2 9.32 2 10 C2.66 10 3.32 10 4 10 C4 9.34 4 8.68 4 8 C3.34 8 2.68 8 2 8 Z " fill="#FFFFFF" transform="translate(196,50)"/>
<path d="M0 0 C1.32 0 2.64 0 4 0 C4 5.94 4 11.88 4 18 C1.03 18 -1.94 18 -5 18 C-6.91060833 14.17878334 -7.28385623 13.31848431 -6.875 9.375 C-6.77832031 8.21097656 -6.77832031 8.21097656 -6.6796875 7.0234375 C-6 5 -6 5 -4.0703125 3.6640625 C-2 3 -2 3 0 4 C0 2.68 0 1.36 0 0 Z M-2 7 C-2 9.64 -2 12.28 -2 15 C-1.34 14.67 -0.68 14.34 0 14 C0 11.69 0 9.38 0 7 C-0.66 7 -1.32 7 -2 7 Z " fill="#FFFFFF" transform="translate(118,50)"/>
<path d="M0 0 C2.475 0.495 2.475 0.495 5 1 C5.33 3.97 5.66 6.94 6 10 C6.33 6.7 6.66 3.4 7 0 C8.32 0 9.64 0 11 0 C11 4.62 11 9.24 11 14 C6.545 14.495 6.545 14.495 2 15 C-0.35119399 11.47320901 -0.21443452 9.97120515 -0.125 5.8125 C-0.10695312 4.72582031 -0.08890625 3.63914062 -0.0703125 2.51953125 C-0.04710937 1.68808594 -0.02390625 0.85664063 0 0 Z " fill="#FFFFFF" transform="translate(222,27)"/>
<path d="M0 0 C0 4.29 0 8.58 0 13 C-1.32 13 -2.64 13 -4 13 C-4 9.37 -4 5.74 -4 2 C-4.66 2 -5.32 2 -6 2 C-6 5.63 -6 9.26 -6 13 C-7.65 13 -9.3 13 -11 13 C-11 8.38 -11 3.76 -11 -1 C-4.5 -2.25 -4.5 -2.25 0 0 Z " fill="#FFFFFF" transform="translate(110,55)"/>
<path d="M0 0 C0.99 0.33 1.98 0.66 3 1 C3 1.66 3 2.32 3 3 C5.31 3 7.62 3 10 3 C9.67 4.98 9.34 6.96 9 9 C8.4225 8.835 7.845 8.67 7.25 8.5 C4.38189316 7.86264293 1.84530529 7.76225789 -1 8.5625 C-3.34394592 9.07523817 -4.7070407 8.59173143 -7 8 C-7.99 8.33 -8.98 8.66 -10 9 C-11.66621616 9.03874921 -13.33394172 9.0450286 -15 9 C-15.99 7.02 -16.98 5.04 -18 3 C-12.06 2.67 -6.12 2.34 0 2 C0 1.34 0 0.68 0 0 Z M-4 4 C-3 6 -3 6 -3 6 Z M-11 5 C-10 7 -10 7 -10 7 Z M-2 5 C-1 7 -1 7 -1 7 Z " fill="#FFFFFF" transform="translate(30,116)"/>
<path d="M0 0 C1 1 1 1 1.09765625 3.72265625 C1.08605469 4.82480469 1.07445312 5.92695312 1.0625 7.0625 C1.05347656 8.16722656 1.04445312 9.27195312 1.03515625 10.41015625 C1.02355469 11.26480469 1.01195312 12.11945313 1 13 C-0.45792884 13.05399736 -1.91642712 13.09279177 -3.375 13.125 C-4.18710938 13.14820312 -4.99921875 13.17140625 -5.8359375 13.1953125 C-8 13 -8 13 -10 11 C-10.1171875 8.46875 -10.1171875 8.46875 -9.875 5.5 C-9.81054688 4.5203125 -9.74609375 3.540625 -9.6796875 2.53125 C-9 0 -9 0 -7.11328125 -1.39453125 C-4.16969332 -2.23788823 -2.66459131 -1.36830364 0 0 Z M-5 2 C-5.33 2.66 -5.66 3.32 -6 4 C-5.01 3.67 -4.02 3.34 -3 3 C-3.66 2.67 -4.32 2.34 -5 2 Z M-5 7 C-5 7.99 -5 8.98 -5 10 C-4.34 9.67 -3.68 9.34 -3 9 C-3 8.34 -3 7.68 -3 7 C-3.66 7 -4.32 7 -5 7 Z " fill="#FFFFFF" transform="translate(230,55)"/>
<path d="M0 0 C0 4.29 0 8.58 0 13 C-2.97 13 -5.94 13 -9 13 C-10.125 10.6875 -10.125 10.6875 -11 8 C-10.34 7.01 -9.68 6.02 -9 5 C-9.40929986 2.94603274 -9.40929986 2.94603274 -10 1 C-7.62170853 -3.75658295 -4.4469474 -1.4823158 0 0 Z M-6 2 C-6 2.66 -6 3.32 -6 4 C-5.34 4 -4.68 4 -4 4 C-4 3.34 -4 2.68 -4 2 C-4.66 2 -5.32 2 -6 2 Z M-6 7 C-5.67 7.99 -5.34 8.98 -5 10 C-4.67 9.01 -4.34 8.02 -4 7 C-4.66 7 -5.32 7 -6 7 Z " fill="#FFFFFF" transform="translate(98,55)"/>
<path d="M0 0 C0 4.29 0 8.58 0 13 C-6.93359375 13.09765625 -6.93359375 13.09765625 -9 13 C-10 12 -10 12 -10.0625 9.0625 C-10.041875 8.051875 -10.02125 7.04125 -10 6 C-10 5.34 -10 4.68 -10 4 C-9.68197057 2.33034549 -9.35015049 0.66321482 -9 -1 C-6 -2 -6 -2 0 0 Z M-6 2 C-6 2.66 -6 3.32 -6 4 C-5.34 4 -4.68 4 -4 4 C-4 3.34 -4 2.68 -4 2 C-4.66 2 -5.32 2 -6 2 Z M-6 7 C-5.67 7.99 -5.34 8.98 -5 10 C-4.67 9.01 -4.34 8.02 -4 7 C-4.66 7 -5.32 7 -6 7 Z " fill="#FFFFFF" transform="translate(173,55)"/>
<path d="M0 0 C2.50063147 2.50063147 2.32420142 3.47811698 2.375 6.9375 C2.40335938 7.81277344 2.43171875 8.68804687 2.4609375 9.58984375 C2 12 2 12 0.140625 13.82421875 C-2 15 -2 15 -4.625 14.875 C-7 14 -7 14 -9 11 C-9.19850603 7.29455413 -9.17664871 4.52994613 -8 1 C-5.23749964 -0.38125018 -3.05268901 -0.19079306 0 0 Z M-4 3 C-4 5.64 -4 8.28 -4 11 C-3.34 11 -2.68 11 -2 11 C-2 8.69 -2 6.38 -2 4 C-2.66 3.67 -3.32 3.34 -4 3 Z " fill="#FFFFFF" transform="translate(219,27)"/>
<path d="M0 0 C6.93359375 -0.09765625 6.93359375 -0.09765625 9 0 C10 1 10 1 10.09765625 3.94140625 C10.08605469 5.13636719 10.07445313 6.33132812 10.0625 7.5625 C10.05347656 8.76003906 10.04445313 9.95757812 10.03515625 11.19140625 C10.02355469 12.11824219 10.01195313 13.04507813 10 14 C8.68 14 7.36 14 6 14 C6 10.7 6 7.4 6 4 C5.34 4 4.68 4 4 4 C4 7.3 4 10.6 4 14 C2.68 14 1.36 14 0 14 C0 9.38 0 4.76 0 0 Z " fill="#FFFFFF" transform="translate(112,27)"/>
<path d="M0 0 C0 4.29 0 8.58 0 13 C-1.32 13 -2.64 13 -4 13 C-4 9.37 -4 5.74 -4 2 C-4.66 2 -5.32 2 -6 2 C-6 5.63 -6 9.26 -6 13 C-7.32 13 -8.64 13 -10 13 C-10 8.38 -10 3.76 -10 -1 C-4 -2 -4 -2 0 0 Z " fill="#FFFFFF" transform="translate(185,55)"/>
<path d="M0 0 C3 0.25 3 0.25 5 2.25 C5 3.24 5 4.23 5 5.25 C4.01 5.745 4.01 5.745 3 6.25 C3.66 6.58 4.32 6.91 5 7.25 C5.1875 10.125 5.1875 10.125 5 13.25 C2 15.25 2 15.25 -1.1875 14.875 C-2.5796875 14.565625 -2.5796875 14.565625 -4 14.25 C-5 9.5 -5 9.5 -5 7.25 C-5.04125 6.425 -5.0825 5.6 -5.125 4.75 C-4.93155267 0.88105335 -3.75245414 0.31270451 0 0 Z M-1 3.25 C-1 3.91 -1 4.57 -1 5.25 C-0.34 5.25 0.32 5.25 1 5.25 C1 4.59 1 3.93 1 3.25 C0.34 3.25 -0.32 3.25 -1 3.25 Z M-1 9.25 C-1 9.91 -1 10.57 -1 11.25 C-0.34 11.25 0.32 11.25 1 11.25 C1 10.59 1 9.93 1 9.25 C0.34 9.25 -0.32 9.25 -1 9.25 Z " fill="#FFFFFF" transform="translate(239,26.75)"/>
<path d="M0 0 C3.875 1.75 3.875 1.75 5 4 C4.72057545 5.67654729 4.39171753 7.34608154 4 9 C0.33333333 9 -3.33333333 9 -7 9 C-7.845625 9.103125 -8.69125 9.20625 -9.5625 9.3125 C-10.7690625 9.1578125 -10.7690625 9.1578125 -12 9 C-15 4.96551724 -15 4.96551724 -15 3 C-10.05 2.67 -5.1 2.34 0 2 C0 1.34 0 0.68 0 0 Z M-4 4 C-3 6 -3 6 -3 6 Z M-2 5 C-1 7 -1 7 -1 7 Z M1 6 C2 8 2 8 2 8 Z " fill="#FFFFFF" transform="translate(58,116)"/>
<path d="M0 0 C1 1 1 1 1.09765625 3.28515625 C1.08605469 4.20167969 1.07445312 5.11820312 1.0625 6.0625 C1.05347656 6.98160156 1.04445312 7.90070313 1.03515625 8.84765625 C1.02355469 9.55792969 1.01195312 10.26820312 1 11 C-1.97 11 -4.94 11 -8 11 C-8 7.37 -8 3.74 -8 0 C-4.3147485 -0.92131287 -3.34188735 -1.15237495 0 0 Z " fill="#FFFFFF" transform="translate(218,93)"/>
<path d="M0 0 C0.78375 0.2475 1.5675 0.495 2.375 0.75 C3.76050197 3.52100394 3.5627467 5.6834706 3.375 8.75 C2.385 10.235 2.385 10.235 1.375 11.75 C-0.935 11.42 -3.245 11.09 -5.625 10.75 C-5.70596803 9.29257537 -5.76417774 7.83387193 -5.8125 6.375 C-5.84730469 5.56289062 -5.88210937 4.75078125 -5.91796875 3.9140625 C-5.82128906 3.19992188 -5.72460938 2.48578125 -5.625 1.75 C-2.625 -0.25 -2.625 -0.25 0 0 Z M-1.625 2.75 C-1.955 4.4 -2.285 6.05 -2.625 7.75 C-1.635 8.245 -1.635 8.245 -0.625 8.75 C-0.625 6.77 -0.625 4.79 -0.625 2.75 C-0.955 2.75 -1.285 2.75 -1.625 2.75 Z " fill="#FFFFFF" transform="translate(190.625,92.25)"/>
<path d="M0 0 C1.60725635 3.21451269 1.05748185 6.43612536 1 10 C-0.32 10.33 -1.64 10.66 -3 11 C-3.33 8.36 -3.66 5.72 -4 3 C-4.33 5.64 -4.66 8.28 -5 11 C-5.99 11 -6.98 11 -8 11 C-8 7.37 -8 3.74 -8 0 C-3.17808219 -1.20547945 -3.17808219 -1.20547945 0 0 Z " fill="#FFFFFF" transform="translate(173,93)"/>
<path d="M0 0 C3.125 0.375 3.125 0.375 6 1 C6 4.63 6 8.26 6 12 C3.66705225 12.04241723 1.33297433 12.04092937 -1 12 C-2.58894072 10.41105928 -2.16998411 8.75198576 -2.1875 6.5625 C-2.20167969 5.75941406 -2.21585938 4.95632812 -2.23046875 4.12890625 C-2 2 -2 2 0 0 Z M1 3 C1.33 3.66 1.66 4.32 2 5 C2.33 4.34 2.66 3.68 3 3 C2.34 3 1.68 3 1 3 Z M1 7 C1 7.66 1 8.32 1 9 C1.66 9 2.32 9 3 9 C3 8.34 3 7.68 3 7 C2.34 7 1.68 7 1 7 Z " fill="#FFFFFF" transform="translate(236,92)"/>
<path d="M0 0 C1.32 0 2.64 0 4 0 C4 5.94 4 11.88 4 18 C2.68 18 1.36 18 0 18 C0 12.06 0 6.12 0 0 Z " fill="#FFFFFF" transform="translate(245,23)"/>
<path d="M0 0 C1.32 0 2.64 0 4 0 C4 5.94 4 11.88 4 18 C2.68 18 1.36 18 0 18 C0 12.06 0 6.12 0 0 Z " fill="#FFFFFF" transform="translate(124,23)"/>
<path d="M0 0 C1.32 0 2.64 0 4 0 C4 5.94 4 11.88 4 18 C2.68 18 1.36 18 0 18 C0 12.06 0 6.12 0 0 Z " fill="#FFFFFF" transform="translate(106,23)"/>
<path d="M0 0 C1.65 0 3.3 0 5 0 C5 4.29 5 8.58 5 13 C3.35 13.33 1.7 13.66 0 14 C0 9.38 0 4.76 0 0 Z " fill="#FFFFFF" transform="translate(232,54)"/>
<path d="M0 0 C1.32 0 2.64 0 4 0 C3.67 4.95 3.34 9.9 3 15 C1.68 15 0.36 15 -1 15 C-1.22304441 13.25181409 -1.4278645 11.50129677 -1.625 9.75 C-1.74101562 8.77546875 -1.85703125 7.8009375 -1.9765625 6.796875 C-2.00112537 3.86570607 -1.5312717 2.45471036 0 0 Z " fill="#FFFFFF" transform="translate(196,89)"/>
<path d="M0 0 C1.32 0 2.64 0 4 0 C5.20568053 4.67201205 5.09382426 9.21496292 5 14 C3.35 13.67 1.7 13.34 0 13 C-0.19551338 11.39679026 -0.38111983 9.79237014 -0.5625 8.1875 C-0.71912109 6.84751953 -0.71912109 6.84751953 -0.87890625 5.48046875 C-1 3 -1 3 0 0 Z " fill="#FFFFFF" transform="translate(175,90)"/>
<path d="M0 0 C1.32 0 2.64 0 4 0 C4 4.95 4 9.9 4 15 C2.68 15 1.36 15 0 15 C0 10.05 0 5.1 0 0 Z " fill="#FFFFFF" transform="translate(205,89)"/>
<path d="M0 0 C1.65 0 3.3 0 5 0 C5 0.99 5 1.98 5 3 C3.35 3 1.7 3 0 3 C0 2.01 0 1.02 0 0 Z " fill="#FFFFFF" transform="translate(232,50)"/>
</svg>
